<?xml version="1.0" standalone="no"?>
<!DOCTYPE svg PUBLIC "-//W3C//DTD SVG 20010904//EN"
 "http://www.w3.org/TR/2001/REC-SVG-20010904/DTD/svg10.dtd">
<svg version="1.0" xmlns="http://www.w3.org/2000/svg"
 width="330.000000pt" height="330.000000pt" viewBox="0 0 330.000000 330.000000"
 preserveAspectRatio="xMidYMid meet">
<metadata>
Created by potrace 1.11, written by Peter Selinger 2001-2013
</metadata>
<g transform="translate(0.000000,330.000000) scale(0.100000,-0.100000)"
fill="#000000" stroke="none">
<path d="M339 2770 c-9 -6 -15 -733 -6 -747 3 -5 197 -8 431 -8 340 0 425 -2
421 -12 -2 -7 0 -13 6 -13 6 0 7 -5 3 -12 -10 -16 -11 -208 -1 -208 5 0 5 -5
1 -12 -12 -19 -11 -158 1 -158 6 0 3 -5 -5 -11 -11 -8 -12 -12 -2 -16 6 -2 9
-9 6 -15 -10 -15 -10 -188 -1 -188 5 0 5 -5 1 -12 -10 -16 -11 -68 -1 -68 5 0
5 -5 2 -11 -10 -16 -11 -189 -1 -189 5 0 3 -7 -4 -15 -10 -12 -10 -15 1 -15
11 0 11 -3 -1 -11 -11 -8 -12 -12 -2 -16 6 -2 9 -9 6 -15 -4 -5 -6 -45 -6 -89
0 -47 -4 -79 -10 -79 -5 0 -33 24 -61 53 -57 59 -50 58 -202 43 -72 -6 -198
-18 -205 -18 -33 -2 -35 2 -34 89 0 49 -6 120 -14 158 -7 39 -14 77 -15 85 -2
15 -16 30 -28 30 -4 0 -9 -9 -12 -20 -8 -31 -9 -33 -19 -60 -5 -13 -11 -56
-14 -95 -3 -38 -7 -79 -8 -90 -1 -11 1 -32 5 -47 5 -18 4 -28 -3 -28 -7 0 -6
-5 1 -14 17 -20 -3 -32 -69 -40 -14 -2 -51 -9 -82 -15 -32 -7 -60 -12 -63 -12
-2 0 -23 -6 -45 -14 -22 -8 -44 -15 -48 -15 -46 -5 -162 -56 -162 -71 0 -6 -4
-8 -8 -5 -12 7 -33 -34 -29 -56 4 -23 37 -58 54 -58 7 0 13 -5 13 -11 0 -5 5
-7 10 -4 5 3 10 2 10 -2 0 -5 26 -17 58 -27 31 -10 64 -21 72 -24 8 -3 18 -6
23 -7 4 -2 8 -4 10 -5 1 -1 13 -3 27 -4 14 -2 32 -6 42 -10 9 -4 29 -9 45 -10
50 -5 108 -18 120 -28 7 -5 14 -5 18 2 3 6 11 8 16 4 5 -3 29 -7 52 -10 56 -5
70 -8 85 -17 7 -5 12 -3 12 3 0 6 5 8 11 4 6 -3 30 -8 52 -9 113 -8 192 -17
199 -21 4 -3 8 1 8 8 0 8 3 9 8 3 7 -10 23 -12 179 -17 46 -2 83 -7 83 -11 0
-4 9 -3 20 3 14 8 20 8 20 0 0 -6 5 -8 12 -4 10 6 73 9 81 4 8 -5 67 -5 67 0
0 4 7 7 15 7 8 0 15 -3 15 -7 0 -10 64 -6 72 5 5 6 8 5 8 -4 0 -11 3 -11 15
-1 8 7 15 8 15 3 0 -16 71 -6 89 12 9 10 11 15 4 11 -13 -7 -13 40 0 61 4 6 3
14 -2 17 -10 7 -9 25 2 44 5 7 3 12 -4 12 -9 0 -9 3 0 14 8 10 9 16 1 21 -6 3
-7 11 -3 18 3 6 8 36 10 66 4 66 10 136 13 136 2 0 7 26 15 84 8 54 26 42 32
-21 6 -59 11 -93 13 -93 1 0 3 -30 5 -66 1 -36 5 -71 9 -78 4 -6 1 -11 -6 -11
-8 0 -9 -3 -3 -8 6 -4 10 -52 10 -109 0 -57 3 -103 8 -103 4 0 10 0 13 1 4 0
11 -5 15 -13 5 -7 9 -8 9 -3 0 6 28 11 63 11 176 4 297 10 297 15 0 3 25 5 55
4 30 0 55 2 55 5 0 3 17 5 38 6 20 1 64 5 97 9 33 4 77 8 97 9 21 0 38 4 38 8
0 4 10 7 23 7 12 -1 33 2 47 6 14 4 41 8 60 10 19 2 35 4 35 5 0 3 38 10 62
13 13 1 23 6 23 10 0 5 6 7 13 4 6 -2 33 4 58 14 26 10 50 15 53 12 3 -4 6 -1
6 5 0 7 7 12 15 12 18 0 57 20 67 35 5 6 8 6 8 0 0 -5 8 2 17 15 10 14 17 28
15 33 -1 4 3 7 9 7 6 0 -2 18 -18 40 -15 22 -36 40 -45 40 -10 0 -18 5 -18 12
0 6 -3 8 -7 5 -3 -4 -16 -1 -27 6 -12 8 -32 17 -46 20 -14 3 -43 11 -65 17
-22 6 -49 13 -60 15 -32 6 -60 13 -60 15 0 2 -78 12 -102 13 -13 1 -23 4 -23
7 0 4 -16 7 -35 8 -73 3 -85 5 -85 11 0 4 -12 8 -27 9 -59 3 -63 5 -52 19 6 7
9 19 6 27 -3 8 -3 17 0 20 5 5 5 111 0 253 -1 29 -6 53 -11 53 -5 0 -3 6 3 13
6 8 8 17 5 20 -4 4 -8 26 -10 49 -8 99 -22 148 -39 142 -8 -3 -11 -12 -8 -20
3 -8 1 -14 -5 -14 -5 0 -9 -16 -8 -35 1 -19 -2 -35 -7 -35 -5 0 -7 -8 -6 -17
1 -10 1 -20 0 -23 -3 -6 -12 -176 -14 -260 -1 -36 0 -84 4 -108 3 -23 2 -42
-2 -42 -5 0 -6 -7 -2 -16 5 -15 -3 -16 -78 -9 -197 17 -173 21 -235 -43 -34
-34 -58 -52 -62 -45 -10 16 -8 816 3 832 5 8 4 12 -1 8 -10 -6 -11 94 -1 110
4 6 4 13 1 16 -9 9 -12 147 -4 142 5 -3 6 4 3 16 -3 12 -1 24 5 28 6 3 196 6
424 5 227 0 418 1 424 3 7 3 11 20 10 39 -1 20 2 38 6 41 5 2 5 9 2 15 -12 18
-11 92 0 101 7 6 7 10 1 13 -8 3 -12 174 -5 194 1 3 1 10 0 15 -8 30 -5 91 4
98 8 5 8 9 1 15 -7 4 -10 50 -9 115 1 102 0 107 -20 108 -77 4 -2450 3 -2457
-1z m1095 -1325 c2 -22 5 -40 6 -40 4 0 11 -86 13 -167 1 -49 5 -88 8 -88 6 0
2 -66 -6 -87 -2 -7 0 -13 6 -13 6 0 7 -5 3 -11 -6 -10 -11 -71 -17 -216 -1
-13 -4 -23 -8 -23 -3 0 -5 -11 -4 -25 2 -14 -1 -27 -6 -31 -5 -3 -7 -9 -4 -14
7 -12 -14 -54 -23 -45 -4 3 -7 23 -8 43 -1 20 -3 38 -4 40 -2 1 -4 7 -5 12 -1
6 -3 11 -5 13 -1 1 -4 36 -6 78 -4 89 -7 110 -17 126 -4 6 -3 14 1 17 10 6 8
73 -2 83 -3 3 -1 15 5 26 8 15 8 18 -1 12 -9 -6 -9 -2 -1 14 9 16 9 21 -1 21
-8 0 -9 3 -3 8 6 4 11 30 12 57 5 140 8 173 15 169 4 -3 8 5 8 18 -1 37 6 81
15 103 8 17 10 16 17 -10 4 -17 10 -48 12 -70z"/>
<path d="M953 1832 c-7 -4 -11 -19 -8 -32 2 -13 0 -28 -5 -34 -5 -7 -10 -34
-12 -61 -2 -28 -7 -56 -11 -62 -5 -8 -3 -13 3 -13 7 0 8 -6 2 -17 -10 -22 -9
-243 1 -260 5 -8 3 -13 -5 -13 -9 0 -10 -2 -2 -8 7 -4 14 -29 17 -57 2 -27 7
-59 10 -70 3 -11 6 -25 6 -32 1 -6 9 -10 19 -9 15 3 20 14 24 66 0 8 4 20 8
25 6 10 11 56 14 145 1 25 6 51 10 59 7 10 6 12 -4 6 -10 -6 -11 -4 -4 6 12
19 14 39 4 39 -5 0 -5 14 0 30 5 17 5 30 1 30 -4 0 -8 28 -9 63 -2 63 -4 78
-18 132 -4 17 -8 39 -8 49 -1 22 -15 29 -33 18z"/>
</g>
</svg>
